<svg viewBox="0 0 200 200" fill="none" xmlns="http://www.w3.org/2000/svg">
  <defs>
    <filter id="vs-glow" x="-40%" y="-40%" width="180%" height="180%">
      <feGaussianBlur stdDeviation="2.4" result="blur" />
      <feColorMatrix in="blur" type="matrix" values="1 0 0 0 0  0 0.55 0 0 0  0 0 0 0 0  0 0 0 0.9 0" result="glow" />
      <feComposite in="SourceGraphic" in2="glow" operator="over" />
    </filter>
    <linearGradient id="vs-orangeGradient" x1="0%" y1="0%" x2="100%" y2="100%">
      <stop offset="0%" stop-color="#FF6A00" />
      <stop offset="100%" stop-color="#FF8C32" />
    </linearGradient>
    <radialGradient id="vs-pupil" cx="50%" cy="45%" r="60%">
      <stop offset="0%" stop-color="#FFB066" />
      <stop offset="55%" stop-color="#FF8C32" />
      <stop offset="100%" stop-color="#FF6A00" />
    </radialGradient>
  </defs>

  <!-- Outer ring: 4 segments, frozen at a balanced angle -->
  <g transform="rotate(18 100 100)">
    <path d="M100 10 A 90 90 0 1 1 100 190 A 90 90 0 1 1 100 10"
      stroke="url(#vs-orangeGradient)" stroke-width="3" stroke-linecap="round"
      fill="none" stroke-dasharray="100 41.3" opacity="0.9" />
  </g>
  <!-- Inner ring: 8 segments, counter-rotated -->
  <g transform="rotate(-26 100 100)">
    <path d="M100 22 A 78 78 0 1 1 100 178 A 78 78 0 1 1 100 22"
      stroke="#FF6A00" stroke-width="1.5" stroke-linecap="round"
      fill="none" stroke-dasharray="35 26.25" opacity="0.6" />
  </g>

  <!-- Shield -->
  <path d="M100 35 L145 55 V95 C145 125 125 150 100 165 C75 150 55 125 55 95 V55 L100 35 Z"
    stroke="#FF6A00" stroke-width="3" fill="#0A0A0A" filter="url(#vs-glow)" />

  <!-- Eye outline -->
  <path d="M70 100 C70 100 85 85 100 85 C115 85 130 100 130 100 C130 100 115 115 100 115 C85 115 70 100 70 100 Z"
    stroke="#FF6A00" stroke-width="2" fill="none" />

  <!-- Pupil (frozen mid-pulse) -->
  <circle cx="100" cy="100" r="13" fill="#FF6A00" opacity="0.28" />
  <circle cx="100" cy="100" r="6.5" fill="url(#vs-pupil)" />

  <!-- Tech ticks -->
  <path d="M100 35 V45" stroke="#FF6A00" stroke-width="1" />
  <path d="M100 155 V165" stroke="#FF6A00" stroke-width="1" />
</svg>
